<?xml version="1.0" encoding="utf-8"?>
<!-- Generator: Adobe Illustrator 26.0.3, SVG Export Plug-In . SVG Version: 6.00 Build 0)  -->
<svg version="1.1" xmlns="http://www.w3.org/2000/svg" xmlns:xlink="http://www.w3.org/1999/xlink" x="0px" y="0px"
	 viewBox="0 0 1920 1080" style="enable-background:new 0 0 1920 1080;" xml:space="preserve">
<style type="text/css">
	.st0{display:none;}
	.st1{display:inline;}
	.st2{fill:#FFFFFF;}
</style>
<g id="Ebene_1" class="st0">
	<g class="st1">
		<rect x="-22.5" y="-20.5" width="1969" height="1116"/>
		<path class="st2" d="M1946-20v1115H-22V-20H1946 M1947-21H-23v1117h1970V-21L1947-21z"/>
	</g>
</g>
<g id="stars1">
	<g>
		<g>
			<circle class="st2" cx="469" cy="494" r="1"/>
		</g>
		<g>
			<ellipse class="st2" cx="1567" cy="734.07" rx="1" ry="0.93"/>
		</g>
		<g>
			<ellipse class="st2" cx="581.02" cy="843.64" rx="7.13" ry="6.93"/>
		</g>
		<g>
			<ellipse class="st2" cx="1604.5" cy="172" rx="1.5" ry="3"/>
		</g>
		<g>
			<ellipse class="st2" cx="345" cy="202.5" rx="3" ry="3.5"/>
		</g>
		<g>
			<ellipse class="st2" cx="689" cy="545.77" rx="3" ry="3.5"/>
		</g>
		<g>
			<ellipse class="st2" cx="304" cy="742.5" rx="3" ry="3.5"/>
		</g>
		<g>
			<ellipse class="st2" cx="1729" cy="481.5" rx="3" ry="3.5"/>
		</g>
		<g>
			<ellipse class="st2" cx="1813" cy="349.5" rx="3" ry="3.5"/>
		</g>
		<g>
			<ellipse class="st2" cx="572" cy="72.5" rx="3" ry="3.5"/>
		</g>
		<g>
			<circle class="st2" cx="571.81" cy="734.7" r="1"/>
		</g>
		<g>
			<circle class="st2" cx="636.81" cy="792.7" r="1"/>
		</g>
		<g>
			<circle class="st2" cx="468.81" cy="872.7" r="1"/>
		</g>
		<g>
			<circle class="st2" cx="509.81" cy="709.7" r="1"/>
		</g>
		<g>
			<circle class="st2" cx="702.81" cy="965.7" r="1"/>
		</g>
		<g>
			<circle class="st2" cx="251.81" cy="936.7" r="1"/>
		</g>
		<g>
			<circle class="st2" cx="109.81" cy="668.7" r="1"/>
		</g>
		<g>
			<circle class="st2" cx="308.81" cy="573.7" r="1"/>
		</g>
		<g>
			<circle class="st2" cx="1802" cy="68" r="8"/>
		</g>
		<g>
			<circle class="st2" cx="1947" cy="938" r="8"/>
		</g>
		<g>
			<circle class="st2" cx="1598.5" cy="989.5" r="3.5"/>
		</g>
		<g>
			<circle class="st2" cx="1797" cy="903" r="3"/>
		</g>
		<g>
			<circle class="st2" cx="1794.5" cy="1076.5" r="3.5"/>
		</g>
		<g>
			<circle class="st2" cx="1463" cy="882" r="2"/>
		</g>
	</g>
</g>
<g id="stars2">
	<g>
		<g>
			<circle class="st2" cx="1564.05" cy="891.62" r="1"/>
		</g>
		<g>
			<ellipse transform="matrix(0.3384 -0.941 0.941 0.3384 128.1926 770.538)" class="st2" cx="612.1" cy="294.1" rx="0.93" ry="1"/>
		</g>
		<g>
			
				<ellipse transform="matrix(0.3384 -0.941 0.941 0.3384 -506.7494 899.8325)" class="st2" cx="386.58" cy="810.31" rx="3" ry="1.5"/>
		</g>
		<g>
			
				<ellipse transform="matrix(0.3384 -0.941 0.941 0.3384 -89.9706 2287.7922)" class="st2" cx="1582.07" cy="1207.88" rx="3.5" ry="3"/>
		</g>
		<g>
			
				<ellipse transform="matrix(0.3384 -0.941 0.941 0.3384 521.547 2169.092)" class="st2" cx="1803.41" cy="713.63" rx="3.5" ry="3"/>
		</g>
		<g>
			
				<ellipse transform="matrix(0.3384 -0.941 0.941 0.3384 -201.2574 667.6161)" class="st2" cx="374.17" cy="476.94" rx="3.5" ry="3"/>
		</g>
		<g>
			
				<ellipse transform="matrix(0.3384 -0.941 0.941 0.3384 -373.232 614.5641)" class="st2" cx="250.46" cy="572.72" rx="3.5" ry="3"/>
		</g>
		<g>
			
				<ellipse transform="matrix(0.3384 -0.941 0.941 0.3384 -238.7086 1104.6082)" class="st2" cx="666.23" cy="722.07" rx="3.5" ry="3"/>
		</g>
		<g>
			
				<ellipse transform="matrix(0.3384 -0.941 0.941 0.3384 -303.2048 2075.4941)" class="st2" cx="1324.47" cy="1253.38" rx="3.5" ry="3"/>
		</g>
		<g>
			<circle class="st2" cx="1548.77" cy="630.33" r="1"/>
		</g>
		<g>
			<circle class="st2" cx="1507.24" cy="553.75" r="1"/>
		</g>
		<g>
			<circle class="st2" cx="1692.4" cy="535.33" r="1"/>
		</g>
		<g>
			<circle class="st2" cx="1598.65" cy="674.83" r="1"/>
		</g>
		<g>
			<circle class="st2" cx="1503.68" cy="368.62" r="1"/>
		</g>
		<g>
			<circle class="st2" cx="1918.25" cy="548.55" r="1"/>
		</g>
		<g>
			<circle class="st2" cx="1961.17" cy="848.79" r="1"/>
		</g>
		<g>
			<circle class="st2" cx="1741.76" cy="870.84" r="1"/>
		</g>
		<g>
			<circle class="st2" cx="165.54" cy="841.33" r="8"/>
		</g>
		<g>
			<circle class="st2" cx="323.54" cy="-26.4" r="8"/>
		</g>
		<g>
			<circle class="st2" cx="826.1" cy="1173.5" r="8"/>
		</g>
		<g>
			<circle class="st2" cx="668.9" cy="43.09" r="3.5"/>
		</g>
		<g>
			<circle class="st2" cx="452.84" cy="57.3" r="3"/>
		</g>
		<g>
			<circle class="st2" cx="513.91" cy="-105.11" r="3.5"/>
		</g>
	</g>
</g>
</svg>
